<?xml version="1.0" encoding="utf-8"?>
<!-- Generator: Adobe Illustrator 16.0.0, SVG Export Plug-In . SVG Version: 6.00 Build 0)  -->
<!DOCTYPE svg PUBLIC "-//W3C//DTD SVG 1.1//EN" "http://www.w3.org/Graphics/SVG/1.1/DTD/svg11.dtd">
<svg version="1.1" id="Layer_1" xmlns="http://www.w3.org/2000/svg" xmlns:xlink="http://www.w3.org/1999/xlink" x="0px" y="0px"
	 width="128px" height="128px" viewBox="0 0 128 128" enable-background="new 0 0 128 128" xml:space="preserve">
<g>
	<g>
		<path fill="#DF5C4E" d="M39.94,66.462c1.543,1.542,2.393,3.594,2.393,5.774c0,1.189-0.262,2.338-0.742,3.389
			c3.027-1.429,6.76-0.901,9.26,1.6c1.543,1.543,2.393,3.594,2.395,5.775c0,1.243-0.285,2.438-0.807,3.527
			c3.018-1.391,6.713-0.854,9.197,1.628c2.182,2.183,2.867,5.305,2.055,8.079l61.234-61.396L93.079,2.991l-61.26,61.421
			c0.752-0.225,1.541-0.342,2.348-0.342C36.349,64.07,38.397,64.919,39.94,66.462z"/>
		<path fill="#E36D60" d="M104.159,14.071L43.128,75.101c2.682-0.659,5.633,0.032,7.723,2.124c1.543,1.543,2.393,3.594,2.395,5.775
			c0,0.452-0.051,0.896-0.125,1.332l60.65-60.647L104.159,14.071z"/>
		<path fill="#DF5C4E" d="M15.382,115.33c-0.066,0.031-0.135,0.044-0.201,0.044c-0.188,0-0.365-0.106-0.449-0.287
			c-0.109-0.247,0-0.536,0.246-0.647l10.787-4.873L14.976,98.778L3.356,124.729l25.949-11.621l-2.801-2.802L15.382,115.33z"/>
		<path fill="#CCCCCC" d="M29.118,67.123l0.023,0.022l0.033-0.072C29.155,67.091,29.136,67.105,29.118,67.123z"/>
		<path fill="#CCCCCC" d="M29.118,67.123c-0.012,0.012-0.023,0.021-0.033,0.031l0,0l0.035,0.037l0.021-0.046L29.118,67.123z"/>
		<path fill="#CCCCCC" d="M39.353,77.202l-0.012-0.012c-0.012,0.013-0.025,0.022-0.037,0.034c-0.016,0.015-0.02,0.034-0.033,0.05
			l0.01,0.01C39.304,77.258,39.327,77.229,39.353,77.202z"/>
		<path fill="#CCCCCC" d="M39.353,77.202c0.039-0.04,0.074-0.082,0.113-0.122c-0.041,0.038-0.086,0.071-0.125,0.11L39.353,77.202z"
			/>
		<path fill="#CCCCCC" d="M39.28,77.284l-0.01-0.01c-0.01,0.014-0.018,0.027-0.027,0.042l0.004,0.003
			C39.259,77.309,39.269,77.296,39.28,77.284z"/>
		<path fill="#F0B551" d="M60.944,88.848c-2.779-2.777-7.283-2.797-10.094-0.066c-0.012,0.012-0.025,0.022-0.039,0.035
			c-0.012,0.011-0.023,0.021-0.035,0.031c-0.191,0.192-0.5,0.192-0.691,0c-0.191-0.19-0.191-0.5,0-0.691
			c0.012-0.012,0.023-0.021,0.035-0.032c0.01-0.01,0.02-0.018,0.029-0.026c0.004-0.004,0.006-0.01,0.01-0.014l0.002-0.003
			c1.357-1.358,2.105-3.161,2.105-5.081c0-1.921-0.75-3.726-2.107-5.083c-2.746-2.751-7.188-2.795-10.004-0.146
			c-0.039,0.042-0.072,0.084-0.113,0.127c-0.012,0.011-0.021,0.022-0.031,0.034c-0.014,0.013-0.025,0.029-0.039,0.044
			C39.96,77.988,39.95,78,39.938,78.012c-0.096,0.096-0.221,0.144-0.346,0.144s-0.25-0.048-0.346-0.144
			c-0.168-0.167-0.18-0.423-0.053-0.612c0.01-0.031,0.031-0.057,0.049-0.083c0.01-0.015,0.018-0.028,0.027-0.042
			c0.014-0.016,0.018-0.035,0.033-0.05c0.012-0.012,0.025-0.021,0.037-0.034c0.039-0.039,0.084-0.072,0.125-0.11
			c1.215-1.329,1.889-3.032,1.889-4.844c0-1.92-0.748-3.726-2.105-5.082c-1.357-1.357-3.162-2.105-5.082-2.105
			c-1.85,0-3.59,0.701-4.93,1.968c-0.021,0.019-0.045,0.037-0.062,0.057l-0.033,0.072l-0.021,0.046L15.403,97.822l14.857,14.858
			l30.633-13.654l0.135-0.06l0.123-0.155C63.735,95.993,63.671,91.574,60.944,88.848z"/>
	</g>
	<g>
		
			<polyline fill="none" stroke="#000000" stroke-width="2" stroke-linecap="round" stroke-linejoin="round" stroke-miterlimit="10" points="
			28.886,66.661 93.079,2.299 125.616,34.838 61.312,99.314 		"/>
		
			<polyline fill="none" stroke="#000000" stroke-width="2" stroke-linecap="round" stroke-linejoin="round" stroke-miterlimit="10" points="
			61.312,99.314 2.384,125.701 28.771,66.776 		"/>
		<path fill="none" stroke="#000000" stroke-width="2" stroke-linecap="round" stroke-linejoin="round" stroke-miterlimit="10" d="
			M39.649,77.57c2.998-2.997,7.857-2.998,10.855,0c3,2.999,3,7.86,0.002,10.856"/>
		<path fill="none" stroke="#000000" stroke-width="2" stroke-linecap="round" stroke-linejoin="round" stroke-miterlimit="10" d="
			M28.737,66.809c3-2.999,7.859-2.999,10.857,0c2.998,2.997,2.998,7.858-0.002,10.857"/>
		<path fill="none" stroke="#000000" stroke-width="2" stroke-linecap="round" stroke-linejoin="round" stroke-miterlimit="10" d="
			M50.431,88.503c3.002-2.999,7.859-2.999,10.859-0.001c2.998,2.998,3.072,7.78,0.074,10.778"/>
		
			<line fill="none" stroke="#000000" stroke-width="2" stroke-linecap="round" stroke-linejoin="round" stroke-miterlimit="10" x1="47.325" y1="69.894" x2="103.796" y2="13.256"/>
		
			<line fill="none" stroke="#000000" stroke-width="2" stroke-linecap="round" stroke-linejoin="round" stroke-miterlimit="10" x1="58.183" y1="80.75" x2="114.653" y2="24.111"/>
		
			<line fill="none" stroke="#000000" stroke-width="2" stroke-linecap="round" stroke-linejoin="round" stroke-miterlimit="10" x1="14.948" y1="98.058" x2="30.079" y2="113.19"/>
		
			<line fill="none" stroke="#000000" stroke-width="2" stroke-linecap="round" stroke-linejoin="round" stroke-miterlimit="10" x1="26.575" y1="109.737" x2="15.181" y2="114.885"/>
	</g>
</g>
</svg>
