<?xml version="1.0" encoding="utf-8"?>
<!-- Generator: Adobe Illustrator 16.0.0, SVG Export Plug-In . SVG Version: 6.00 Build 0)  -->
<!DOCTYPE svg PUBLIC "-//W3C//DTD SVG 1.1//EN" "http://www.w3.org/Graphics/SVG/1.1/DTD/svg11.dtd">
<svg version="1.1" id="Layer_1" xmlns="http://www.w3.org/2000/svg" xmlns:xlink="http://www.w3.org/1999/xlink" x="0px" y="0px"
	 width="128px" height="128px" viewBox="0 0 128 128" enable-background="new 0 0 128 128" xml:space="preserve">
<g>
	<g>
		<path fill="#33A5D2" d="M52,62.526v58.669c0,2.484,2.67,4.805,5.154,4.805h10.031c2.484,0,3.814-2.32,3.814-4.805V62.526
			C71,60.529,73.684,59,75.141,58H62.18H49.201C50.656,59,52,60.529,52,62.526z"/>
		<path fill="#CCCCCC" d="M120.566,22.495v-0.327c-0.008,0.021-0.021,0.039-0.027,0.062
			C120.52,22.322,120.537,22.412,120.566,22.495z"/>
		<path fill="#E07D46" d="M109.324,10.747c-5.945,0-10.723,4.911-10.875,10.821C98.447,21.664,98.438,22,98.438,22h0.031
			c0,6-5.154,10.88-11.236,10.88S76,27.783,76,21.7v-0.56v-0.409c0-4.953-4.047-8.983-9.002-8.983c-4.953,0-8.998,4.03-8.998,8.983
			v0.182v0.774c0,3.312-2.688,6.007-6,6.007S46,25,46,21.688v-0.927v-0.626c0-3.033-2.467-5.5-5.498-5.5
			c-3.035,0-5.502,2.467-5.502,5.5v0.486v0.576c0,5.783-4.719,10.487-10.5,10.487c-5.783,0-10.5-4.704-10.5-10.487v-0.842V20.21
			c0-3.035-2.467-5.505-5.502-5.505S3,17.175,3,20.21v0.007v15.037C3,37.738,5.643,40,8.127,40h107.932
			c2.484,0,3.941-2.262,3.941-4.746v-12.7v-0.059c0-0.083-0.047-0.173-0.027-0.266c0.006-0.022,0.027-0.04,0.027-0.062v-0.465
			c0-0.002,0-0.004,0-0.006C120,15.658,115.365,10.747,109.324,10.747z"/>
		<path fill="#FFC52F" d="M116.059,2H8.127C5.643,2,3,3.723,3,6.207V16.76c1-1.831,3.18-3.055,5.498-3.055
			c3.586,0,6.502,2.918,6.502,6.505v0.158v0.829c0,5.231,4.268,9.487,9.5,9.487c5.23,0,9.5-4.256,9.5-9.487v-0.588v-0.475
			c0-3.584,2.918-6.5,6.502-6.5S47,16.551,47,20.135v0.639v0.914c0,2.761,2.238,5.007,5,5.007s5-2.246,5-5.007V20.9v-0.169
			c0-5.505,4.494-9.983,9.998-9.983c5.506,0,10.002,4.479,10.002,9.983v0.421V21.7c0,5.531,4.795,10.183,10.326,10.183
			S97.631,27,97.631,22h0.012c0,0,0.018-0.344,0.02-0.442c0.16-6.455,5.166-11.735,11.658-11.735c4.896,0,8.68,2.887,10.68,7.11
			V6.207C120,3.723,118.543,2,116.059,2z"/>
		<polygon fill="#CCCCCC" points="3.619,20.217 3.621,20.217 3.621,20.21 		"/>
	</g>
	<g>
		<path fill="none" stroke="#000000" stroke-width="2" stroke-linecap="round" stroke-linejoin="round" stroke-miterlimit="10" d="
			M72,121.195c0,2.753-2.059,5.805-4.814,5.805H57.154C54.4,127,52,123.948,52,121.195V62.526C52,59.712,47.475,58,47.475,58h29.393
			c0,0-4.867,1.712-4.867,4.526V121.195z"/>
		<path fill="none" stroke="#000000" stroke-width="2" stroke-linecap="round" stroke-linejoin="round" stroke-miterlimit="10" d="
			M120.922,22.692c2.275,0.469,4.078,2.135,4.078,4.544v16.035c0,2.753-2.223,5.729-4.975,5.729H67"/>
		<path fill="none" stroke="#000000" stroke-width="2" stroke-linecap="round" stroke-linejoin="round" stroke-miterlimit="10" d="
			M62,57v-3.717C62,50.53,64.246,49,67,49"/>
		<path fill="none" stroke="#000000" stroke-width="2" stroke-linecap="round" stroke-linejoin="round" stroke-miterlimit="10" d="
			M121,35.994c0,2.765-2.242,5.006-5.008,5.006H8.008C5.242,41,3,38.759,3,35.994V7.006C3,4.241,5.242,2,8.008,2h107.984
			C118.758,2,121,4.241,121,7.006V35.994z"/>
		<path fill="none" stroke="#000000" stroke-width="2" stroke-linecap="round" stroke-linejoin="round" stroke-miterlimit="10" d="
			M121.066,21.704c0-6.328-5.209-11.457-11.537-11.457C103.205,10.247,98,15.376,98,21.704V21.7c0,5.816-4.684,10.532-10.502,10.532
			C81.684,32.232,77,27.517,77,21.7v-0.969c0-5.237-4.264-9.482-9.502-9.482c-5.234,0-9.498,4.245-9.498,9.482v0.956
			c0,3.042-2.459,5.507-5.5,5.507S47,24.729,47,21.688v-1.553c0-3.314-2.688-6-5.998-6c-3.314,0-6.002,2.686-6.002,6v1.062
			c0,5.517-4.486,9.987-10,9.987c-5.518,0-10-4.471-10-9.987V20.21c0-3.317-2.625-6.005-5.941-6.005
			c-3.314,0-5.971,2.688-5.971,6.005"/>
		
			<line fill="none" stroke="#000000" stroke-width="2" stroke-linecap="round" stroke-linejoin="round" stroke-miterlimit="10" x1="66" y1="76" x2="66" y2="120"/>
		
			<line fill="none" stroke="#000000" stroke-width="2" stroke-linecap="round" stroke-linejoin="round" stroke-miterlimit="10" x1="66" y1="66" x2="66" y2="71"/>
	</g>
</g>
</svg>
