<?xml version="1.0" encoding="utf-8"?>
<!-- Generator: Adobe Illustrator 16.0.0, SVG Export Plug-In . SVG Version: 6.00 Build 0)  -->
<!DOCTYPE svg PUBLIC "-//W3C//DTD SVG 1.1//EN" "http://www.w3.org/Graphics/SVG/1.1/DTD/svg11.dtd">
<svg version="1.1" id="Layer_1" xmlns="http://www.w3.org/2000/svg" xmlns:xlink="http://www.w3.org/1999/xlink" x="0px" y="0px"
	 width="128px" height="128px" viewBox="0 0 128 128" enable-background="new 0 0 128 128" xml:space="preserve">
<g>
	<g>
		<path fill="#F4AEA8" d="M112.282,61h-4.368C105.404,52,100,44.335,94,38.596V20.125c-7,0-12.438,4.246-14.534,10.164l-0.1-0.007
			c-4.775-1.695-9.963-2.618-15.322-2.618c-25.242,0-45.685,20.463-45.685,45.705c0,15.102,7.641,28.488,18.641,36.809v11.426
			c0,2.793,2.2,5.396,4.993,5.396h4.233c2.793,0,4.773-2.604,4.773-5.396v-4.331c4,1.165,8.094,1.8,12.5,1.8
			c4.408,0,8.5-0.635,12.5-1.8v4.331c0,2.793,2.982,5.396,5.775,5.396h4.231c2.795,0,4.993-2.604,4.993-5.396v-11.426
			C99,104.277,105.094,97,107.914,87h4.368c2.793,0,5.718-3.257,5.718-6.05V65.787C118,62.994,115.075,61,112.282,61z"/>
		<circle fill="#F4EFEF" cx="83.539" cy="59.062" r="5.11"/>
		<circle fill="#FFC52F" cx="63.919" cy="12.054" r="9.823"/>
	</g>
	<g>
		<g>
			<path fill="none" stroke="#000000" stroke-width="2" stroke-linecap="round" stroke-linejoin="round" stroke-miterlimit="10" d="
				M77.482,29.156c-4.469-1.461-9.241-2.25-14.2-2.25c-25.232,0-45.792,20.456-45.792,45.689c0,15.098,7.509,28.479,18.509,36.799
				v11.421c0,2.792,2.49,5.185,5.283,5.185h4.232c2.791,0,5.484-2.393,5.484-5.185v-4.329c4,1.164,8.095,1.8,12.5,1.8
				c4.406,0,8.5-0.636,12.5-1.8v4.329c0,2.792,1.231,5.185,4.022,5.185h5.261c2.794,0,4.717-2.393,4.717-5.185v-11.421
				C98,103.496,104.364,96,107.184,86h4.367c2.792,0,5.449-3.032,5.449-5.824V65.017c0-2.792-2.657-5.017-5.449-5.017h-4.367
				c-2.509-9-7.541-16.398-14.257-22.136"/>
			<path fill="none" stroke="#000000" stroke-width="2" stroke-linecap="round" stroke-linejoin="round" stroke-miterlimit="10" d="
				M93,39V19.369c-9,0-15.242,7.406-15.242,15.824"/>
			<path fill="none" stroke="#000000" stroke-width="2" stroke-linecap="round" stroke-linejoin="round" stroke-miterlimit="10" d="
				M87.607,56.435c0.225,0.577,0.348,1.204,0.348,1.86c0,2.822-2.29,5.111-5.11,5.111c-2.824,0-5.112-2.289-5.112-5.111
				c0-2.824,2.288-5.113,5.112-5.113c0.889,0,1.725,0.229,2.454,0.628"/>
			<path fill="none" stroke="#000000" stroke-width="2" stroke-linecap="round" stroke-linejoin="round" stroke-miterlimit="10" d="
				M23.637,49.867c-1.343,1.986-3.615,3.293-6.193,3.293c-4.122,0-7.466-3.344-7.466-7.469c0-3.284,2.121-6.072,5.067-7.072"/>
			<path fill="none" stroke="#000000" stroke-width="2" stroke-linecap="round" stroke-linejoin="round" stroke-miterlimit="10" d="
				M54.13,32.14c2.944-0.663,6.008-1.015,9.152-1.015"/>
			<path fill="none" stroke="#000000" stroke-width="2" stroke-linecap="round" stroke-linejoin="round" stroke-miterlimit="10" d="
				M32.812,44.467c4.498-4.871,10.15-8.661,16.521-10.937"/>
		</g>
		
			<circle fill="none" stroke="#000000" stroke-width="2" stroke-linecap="round" stroke-linejoin="round" stroke-miterlimit="10" cx="63.202" cy="11.301" r="9.82"/>
	</g>
</g>
</svg>
